HIERARCHY
ROOT root
{
	OFFSET	0	13.1	24.9
	CHANNELS 6  Xposition Yposition Zposition Xrotation Yrotation Zrotation
	JOINT spine_1
	{
		OFFSET	0	9.99999	0
		CHANNELS 3  Xrotation Yrotation Zrotation
		JOINT spine_2
		{
			OFFSET	0	112	-10
			CHANNELS 3  Xrotation Yrotation Zrotation
			JOINT spine_3
			{
				OFFSET	0	206.5	19.3
				CHANNELS 3  Xrotation Yrotation Zrotation
				JOINT spine_4
				{
					OFFSET	0	110.4	14.6
					CHANNELS 3  Xrotation Yrotation Zrotation
					JOINT neck_1
					{
						OFFSET	0	71.8	-50.3
						CHANNELS 3  Xrotation Yrotation Zrotation
						JOINT neck_2
						{
							OFFSET	0	86.2	-25.8
							CHANNELS 3  Xrotation Yrotation Zrotation
							JOINT head_ee
							{
								OFFSET	0	179.8	-8.7
								CHANNELS 3  Xrotation Yrotation Zrotation
								End Site
								{
									OFFSET	1	0	0
								}
							}
						}
					}
					JOINT left_clavicle
					{
						OFFSET	-43.2	22.4	-70.8
						CHANNELS 3  Xrotation Yrotation Zrotation
						JOINT left_shoulder
						{
							OFFSET	-93.9	-5.79999	48.7
							CHANNELS 3  Xrotation Yrotation Zrotation
							JOINT left_elbow
							{
								OFFSET	-291.4	-30.8	15.2
								CHANNELS 3  Xrotation Yrotation Zrotation
								JOINT left_lowarm_twist
								{
									OFFSET	-110.7	-3.89999	13.6
									CHANNELS 3  Xrotation Yrotation Zrotation
									JOINT left_hand
									{
										OFFSET	-110.7	-3.89999	13.6
										CHANNELS 3  Xrotation Yrotation Zrotation
										JOINT left_ee
										{
											OFFSET	-80.8	-5.10001	12.1
											CHANNELS 3  Xrotation Yrotation Zrotation
											End Site
											{
												OFFSET	1	0	0
											}
										}
									}
								}
							}
						}
					}
					JOINT right_clavicle
					{
						OFFSET	43.2	22.4	-70.8
						CHANNELS 3  Xrotation Yrotation Zrotation
						JOINT right_shoulder
						{
							OFFSET	93.9	-5.79999	48.7
							CHANNELS 3  Xrotation Yrotation Zrotation
							JOINT right_elbow
							{
								OFFSET	291.4	-30.8	15.2
								CHANNELS 3  Xrotation Yrotation Zrotation
								JOINT right_lowarm_twist
								{
									OFFSET	110.7	-3.89999	13.6
									CHANNELS 3  Xrotation Yrotation Zrotation
									JOINT right_hand
									{
										OFFSET	110.7	-3.89999	13.6
										CHANNELS 3  Xrotation Yrotation Zrotation
										JOINT right_ee
										{
											OFFSET	80.8	-5.10001	12.1
											CHANNELS 3  Xrotation Yrotation Zrotation
											End Site
											{
												OFFSET	1	0	0
											}
										}
									}
								}
							}
						}
					}
				}
			}
		}
	}
	JOINT left_hip
	{
		OFFSET	-82.8	-127.5	0.300001
		CHANNELS 3  Xrotation Yrotation Zrotation
		JOINT left_knee
		{
			OFFSET	-28.2	-396.7	2.2
			CHANNELS 3  Xrotation Yrotation Zrotation
			JOINT left_ankle
			{
				OFFSET	-11.7	-411.3	35.4
				CHANNELS 3  Xrotation Yrotation Zrotation
				JOINT left_toes
				{
					OFFSET	0	-60	-88.6
					CHANNELS 3  Xrotation Yrotation Zrotation
					JOINT left_foot_ee
					{
						OFFSET	-22.5	-16.5	-42.2
						CHANNELS 3  Xrotation Yrotation Zrotation
						End Site
						{
							OFFSET	1	0	0
						}
					}
				}
			}
		}
	}
	JOINT right_hip
	{
		OFFSET	82.8	-127.5	0.300001
		CHANNELS 3  Xrotation Yrotation Zrotation
		JOINT right_knee
		{
			OFFSET	28.2	-396.7	2.2
			CHANNELS 3  Xrotation Yrotation Zrotation
			JOINT right_ankle
			{
				OFFSET	11.7	-411.3	35.4
				CHANNELS 3  Xrotation Yrotation Zrotation
				JOINT right_toes
				{
					OFFSET	0	-60	-88.6
					CHANNELS 3  Xrotation Yrotation Zrotation
					JOINT right_foot_ee
					{
						OFFSET	22.5	-16.5	-42.2
						CHANNELS 3  Xrotation Yrotation Zrotation
						End Site
						{
							OFFSET	1	0	0
						}
					}
				}
			}
		}
	}
}
MOTION
Frames: 6
Frame Time: 0.02
801.465268536 575.312 -1665.97274986 -137.282726029 60.8941721971 159.364130164 9.13666 -1.35934 -6.0677 9.1566 -0.971235 -6.14151 9.21898 -0.662258 -6.18231 9.16937 -1.62857 -6.00127 -14.7075 -13.3007 12.821 -15.2266 -33.0151 7.6106 -0.0 0.0 -0.0 13.9272 -25.6126 27.8797 16.887 71.7537 38.8498 0.213143 -6.02737 0.0112213 18.0867 0.278851 -2.28401 -4.80786 26.1251 -16.7452 -0.0 0.0 -0.0 -5.36921 -25.2672 4.18532 90.6423 -76.5539 20.6132 0.500996 13.9382 -0.0612405 76.5882 3.4511 8.40587 -1.61774 0.368255 11.0377 0.0 0.0 0.0 32.9648 -17.2899 -14.2052 -18.8238 0.30778 2.8593 41.6113 2.73222 -4.99748 1.24873 -0.0 -0.0 -0.0 0.0 -0.0 45.9716 6.71827 -17.701 -62.18 2.43993 -8.76114 31.6951 -12.0217 4.08935 16.4565 -0.0 -0.0 0.0 0.0 0.0 
795.984022758 564.552 -1661.40719259 -137.606591303 60.6705011513 159.322624307 9.076 -1.56177 -6.05532 9.09562 -1.17403 -6.14197 9.18024 -0.861772 -6.19331 9.13139 -1.82734 -5.98079 -17.0334 -13.6124 11.0753 -17.9679 -32.26 5.05737 -0.0 0.0 -0.0 14.4758 -26.6783 29.0337 20.7728 70.7113 34.6022 0.185163 -5.24088 0.00847443 18.3983 0.277296 -2.32377 -5.30404 25.8839 -19.8751 -0.0 0.0 -0.0 -5.45297 -25.1639 4.32606 91.0069 -77.3905 21.4102 0.556779 15.4197 -0.0753774 77.3611 3.53779 8.45407 -0.760308 8.37587 8.72287 0.0 0.0 0.0 34.586 -11.6897 -13.3898 -16.7702 0.320109 2.54447 41.4794 3.95404 -4.98392 17.0167 -0.0 -0.0 -0.0 0.0 -0.0 46.8099 4.01014 -17.6582 -54.7338 1.65896 -7.92028 34.0894 -19.9202 4.44482 3.61453 -0.0 -0.0 0.0 0.0 0.0 
800.096428802 561.342 -1671.01360043 -128.128992456 62.191142417 149.859063545 9.81328 -1.44718 -5.85134 9.83167 -1.07259 -5.93118 9.90029 -0.845742 -5.96762 9.85501 -1.77605 -5.76033 -18.6518 -13.9695 11.3971 -19.8588 -32.8647 4.68306 -0.0 0.0 -0.0 14.1993 -27.3975 28.2882 23.1977 70.8461 34.204 0.16965 -4.80395 0.00711628 19.4494 0.270455 -2.45785 -7.07705 26.7476 -30.3318 -0.0 0.0 -0.0 -6.32914 -24.6262 5.67146 81.1222 -79.2014 11.3945 0.571059 15.7956 -0.0792193 77.3475 3.53626 8.45323 0.136425 20.4011 7.76613 0.0 0.0 0.0 40.5198 5.28008 -17.2873 -9.62443 0.275045 1.44971 40.8169 2.1394 -4.93328 40.4969 -0.0 -0.0 -0.0 0.0 -0.0 46.5694 0.618124 -14.2619 -35.126 0.186151 -5.30403 42.5532 -26.6293 5.46556 -25.2351 0.0 0.0 0.0 0.0 0.0 
798.723267694 560.56 -1676.66931426 -123.845944783 62.2479140868 145.251664873 10.4212 -1.38311 -5.7621 10.4391 -1.01429 -5.83807 10.4982 -0.85211 -5.86385 10.4546 -1.76603 -5.65682 -20.154 -13.9824 13.0683 -21.5302 -33.4709 5.78126 -0.0 0.0 -0.0 13.6899 -27.4611 27.0924 19.4596 71.7238 38.3126 0.165622 -4.6904 0.00678293 20.5218 0.260942 -2.5945 -8.44391 30.2165 -35.8634 -0.0 0.0 -0.0 -6.78277 -24.5038 6.33425 80.2308 -79.9281 9.99505 0.55183 15.2891 -0.074067 77.7189 3.57815 8.47599 0.342502 24.2007 8.01575 0.0 0.0 0.0 42.6243 12.3878 -15.8947 -7.67716 0.23913 1.15307 41.5183 -2.40815 -5.02572 40.5822 -0.0 -0.0 -0.0 0.0 -0.0 44.8231 -1.05984 -15.1921 -25.3039 -0.195107 -3.84676 43.5988 -26.6981 5.56324 -34.7988 0.0 0.0 0.0 0.0 0.0 
789.358053132 559.019 -1678.78540953 -122.461759186 62.0272362189 143.011842787 10.9919 -1.45127 -5.63946 11.009 -1.09008 -5.72001 11.0726 -0.989211 -5.73826 11.0316 -1.88169 -5.51117 -19.8038 -13.9989 14.5895 -21.1013 -34.3505 7.31431 -0.0 0.0 -0.0 13.3158 -27.221 26.2569 17.6494 73.0257 40.4578 0.159254 -4.51083 0.00627216 22.716 0.233517 -2.87342 -9.36943 31.3095 -41.1657 -0.0 0.0 -0.0 -8.3073 -25.0763 8.24978 73.3073 -82.8789 0.502989 0.511071 14.2072 -0.0636904 78.6248 3.68092 8.53036 0.652607 27.0561 7.22107 0.0 0.0 0.0 44.7985 16.5605 -17.7871 -7.8785 0.24331 1.18368 40.1704 -4.10744 -4.93342 40.2398 -0.0 -0.0 -0.0 0.0 -0.0 43.6706 -1.17251 -14.9973 -22.4636 -0.258245 -3.41551 43.5931 -26.0481 5.53771 -38.7695 0.0 0.0 0.0 0.0 0.0 
789.340350731 559.019 -1684.49037179 -120.347530346 62.7031007299 140.625484977 10.9919 -1.45127 -5.63946 11.009 -1.09008 -5.72001 11.0726 -0.989211 -5.73826 11.0316 -1.88169 -5.51117 -19.8038 -13.9989 14.5895 -21.1013 -34.3505 7.31431 -0.0 0.0 -0.0 13.3158 -27.221 26.2569 17.6494 73.0257 40.4578 0.159254 -4.51083 0.00627216 22.716 0.233517 -2.87342 -9.36943 31.3095 -41.1657 -0.0 0.0 -0.0 -8.3073 -25.0763 8.24978 73.3073 -82.8789 0.502989 0.511071 14.2072 -0.0636904 78.6248 3.68092 8.53036 0.652607 27.0561 7.22107 0.0 0.0 0.0 44.7985 16.5605 -17.7871 -7.8785 0.24331 1.18368 40.1704 -4.10744 -4.93342 40.2398 -0.0 -0.0 -0.0 0.0 -0.0 43.6706 -1.17251 -14.9973 -22.4636 -0.258245 -3.41551 43.5931 -26.0481 5.53771 -38.7695 0.0 0.0 0.0 0.0 0.0 
